<svg xmlns="http://www.w3.org/2000/svg" viewBox="0 0 36 36" width="36" height="36" preserveAspectRatio="xMidYMid meet" style="width: 100%; height: 100%; transform: translate3d(0px, 0px, 0px);"><defs><clipPath id="__lottie_element_7"><rect width="36" height="36" x="0" y="0"></rect></clipPath></defs><g clip-path="url(#__lottie_element_7)"><g transform="matrix(1,0,0,1,3.75,3.75)" opacity="1" style="display: block;"><g opacity="1" transform="matrix(1,0,0,1,14.25,14.25)"><path fill="rgb(189,118,255)" fill-opacity="1" d=" M14,0 C14,7.73199987411499 7.73199987411499,14 0,14 C-7.73199987411499,14 -14,7.73199987411499 -14,0 C-14,-7.73199987411499 -7.73199987411499,-14 0,-14 C7.73199987411499,-14 14,-7.73199987411499 14,0z"></path></g><g opacity="1" transform="matrix(1,0,0,1,0,0)"><path stroke-linecap="round" stroke-linejoin="round" fill-opacity="0" stroke="rgb(255,255,255)" stroke-opacity="1" stroke-width="2" d=" M14.25,8.293999671936035 C14.25,8.293999671936035 14.25,14.293999671936035 14.25,14.293999671936035"></path></g><g opacity="1" transform="matrix(1,0,0,1,0,0)"><path stroke-linecap="round" stroke-linejoin="round" fill-opacity="0" stroke="rgb(255,255,255)" stroke-opacity="1" stroke-width="2" d=" M20.25,14.293999671936035 C20.25,14.293999671936035 14.25,14.293999671936035 14.25,14.293999671936035"></path></g></g></g></svg>